{"title":"Dirty Wars (2013), Rick Rowley  - TVRip.divx","uid":10124303,"size":1130594730,"categoryP":"video","categoryS":"movies","magnet":"?xt=urn:btih:a3199cf038c3f391b9b182602fcf9d0169533da4&amp;dn=Dirty+Wars+%282013%29%2C+Rick+Rowley++-+TVRip.divx&amp;tr=udp%3A%2F%2Ftracker.openbittorrent.com%3A80&amp;tr=udp%3A%2F%2Fopen.demonii.com%3A1337&amp;tr=udp%3A%2F%2Ftracker.coppersurfer.tk%3A6969&amp;tr=udp%3A%2F%2Fexodus.desync.com%3A6969","seeders":1,"leechers":0,"uploader":"wesleybl","files":1,"time":1399739946,"description":"Dirty Wars\n\nDirector: Rick Rowley\n\nInvestigative journalist Jeremy Scahill is pulled into an unexpected journey as he chases down the hidden truth behind America's expanding covert wars.\n\nVideo\nID                                       : 0\nFormat                                   : MPEG-4 Visual\nFormat settings, BVOP                    : 1\nFormat settings, QPel                    : No\nFormat settings, GMC                     : No warppoints\nFormat settings, Matrix                  : Default (H.263)\nMuxing mode                              : Packed bitstream\nCodec ID                                 : DX50\nCodec ID/Hint                            : DivX 5\nDuration                                 : 1h 25mn\nBit rate                                 : 1 500 Kbps\nWidth                                    : 720 pixels\nHeight                                   : 480 pixels\nDisplay aspect ratio                     : 4:3\nFrame rate                               : 29.970 fps\nStandard                                 : NTSC\nColor space                              : YUV\nChroma subsampling                       : 4:2:0\nBit depth                                : 8 bits\nScan type                                : Progressive\nCompression mode                         : Lossy\nBits/(Pixel*Frame)                       : 0.145\nStream size                              : 915 MiB (85%)\nTitle                                    : Video\nWriting library                          : DivX 6.6.1.4\n\nAudio\nID                                       : 1\nFormat                                   : AC-3\nFormat/Info                              : Audio Coding 3\nMode extension                           : CM (complete main)\nCodec ID                                 : 2000\nDuration                                 : 1h 25mn\nBit rate mode                            : Constant\nBit rate                                 : 256 Kbps\nChannel(s)                               : 2 channels\nChannel positions                        : Front: L R\nSampling rate                            : 48.0 KHz\nBit depth                                : 16 bits\nCompression mode                         : Lossy\nStream size                              : 156 MiB (14%)\nAlignment                                : Split accross interleaves\nInterleave, duration                     : 33 ms (1.00 video frame)\nInterleave, preload duration             : 500 ms\nTitle                                    : Audio ","torrent":{"xt":"urn:btih:a3199cf038c3f391b9b182602fcf9d0169533da4","amp;dn":"Dirty+Wars+%282013%29%2C+Rick+Rowley++-+TVRip.divx","amp;tr":["udp%3A%2F%2Ftracker.openbittorrent.com%3A80","udp%3A%2F%2Fopen.demonii.com%3A1337","udp%3A%2F%2Ftracker.coppersurfer.tk%3A6969","udp%3A%2F%2Fexodus.desync.com%3A6969"],"infoHash":"a3199cf038c3f391b9b182602fcf9d0169533da4","infoHashBuffer":{"type":"Buffer","data":[163,25,156,240,56,195,243,145,185,177,130,96,47,207,157,1,105,83,61,164]},"announce":[],"urlList":[]}}